<svg width="176" height="144" viewBox="0 0 176 144" fill="none" xmlns="http://www.w3.org/2000/svg">
<path d="M44.2896 0.792661C40.5004 6.34128 35.1674 15.655 35.5884 16.0514C35.8691 16.3156 55.3765 16.6459 78.8837 16.7119C117.898 16.844 121.618 16.9101 121.828 17.9009C121.968 18.5615 120.705 21.0055 119.162 23.4495C117.548 25.9596 115.934 28.6018 115.583 29.3284C115.162 30.1211 114.46 31.4422 113.899 32.3009C113.408 33.2257 113.127 34.2165 113.267 34.4807C113.829 35.3394 153.545 35.0752 153.545 34.2165C153.545 33.8202 152.633 32.0367 151.44 30.2532C150.247 28.5358 149.335 26.8183 149.335 26.4881C149.335 26.2239 148.423 24.7046 147.23 23.2514C146.107 21.7321 145.125 20.2789 145.125 20.0807C145.125 19.8165 143.791 17.5046 142.107 14.9284C140.423 12.3523 138.879 9.77615 138.599 9.24771C138.318 8.71927 137.476 7.33211 136.704 6.27523C135.932 5.15229 134.95 3.56697 134.599 2.6422C134.178 1.78349 133.406 0.79266 132.985 0.52844C132.494 0.26422 112.495 0 88.497 0C54.324 0 44.7106 0.198166 44.2896 0.792661ZM22.6069 36.5284C22.0455 36.8587 21.2736 37.7174 20.8526 38.5101C20.5018 39.3028 19.9404 40.4257 19.5194 40.9541C17.5546 43.7945 12.5023 52.0514 12.5023 52.4477C12.5023 52.7119 11.941 53.7028 11.1691 54.6936C10.4674 55.6844 8.08157 59.4495 5.83611 63.0826C3.59065 66.7156 1.48554 69.7541 1.13469 69.8862C0.152298 70.2826 0.503152 72.2642 2.11707 74.6422C5.06424 79.0018 5.41509 79.5963 6.1168 81.0495C7.37987 83.6917 10.3972 87.8532 11.0287 87.8532C11.3796 87.8532 12.4321 86.4 13.4145 84.6826C16.8529 78.5394 25.133 64.9982 27.3083 61.9596C28.0802 60.9688 28.6415 59.978 28.6415 59.7798C28.6415 59.5817 31.0273 55.6844 33.9043 51.1266C36.7813 46.5688 39.1671 42.6716 39.1671 42.4073C39.1671 42.2092 40.0092 40.8881 40.9916 39.5009C42.0441 38.1138 42.6757 36.7266 42.395 36.4624C41.6231 35.8018 23.8699 35.8679 22.6069 36.5284ZM69.4808 36.3303C66.3231 36.6605 66.3231 36.6606 62.9549 42.9358C62.1129 44.5872 60.3586 47.3615 59.1657 49.211C57.9027 50.9945 55.8677 54.2972 54.6046 56.4771C53.3416 58.6569 51.9382 60.9028 51.5171 61.4312C51.0961 61.9596 50.1137 63.4789 49.3419 64.7339C46.8859 68.8954 44.8509 72.2642 43.3774 74.6422C40.8512 78.6716 39.0268 81.644 30.887 94.9872L22.8876 108L24.1506 110.312C24.8523 111.567 26.7469 114.672 28.3609 117.248C29.9046 119.758 31.4484 122.532 31.729 123.325C32.0097 124.183 32.5009 124.844 32.7816 124.844C33.0623 124.844 33.9745 126.099 34.8867 127.618C35.7288 129.204 37.062 131.317 37.8339 132.44C38.5356 133.497 39.5881 135.281 40.1495 136.404C40.7109 137.461 42.1143 139.64 43.3072 141.226L45.4825 144H132.564L133.757 142.018C134.389 140.961 135.16 140.037 135.511 140.037C135.792 140.037 136.002 139.706 136.002 139.31C136.002 138.914 137.055 136.866 138.388 134.818C139.651 132.771 141.616 129.6 142.669 127.817C143.721 125.967 146.739 121.079 149.335 116.917C165.334 91.222 165.053 91.7505 164.001 91.0899C163.439 90.7596 162.106 90.6275 160.983 90.8257C159.86 91.0239 155.72 91.156 151.791 91.156H144.563L140.213 98.2239C137.827 102.187 133.196 109.585 129.968 114.738C126.74 119.89 124.073 124.382 124.073 124.778C124.073 126.76 120.846 126.958 88.076 126.892C69.9018 126.826 55.0257 126.76 54.9555 126.628C53.1311 124.448 44.0791 109.057 44.0791 108.264C44.0791 107.604 45.4825 104.829 47.2367 102.187C48.991 99.4789 50.3944 97.0349 50.3944 96.8367C50.3944 96.5725 51.1663 95.3835 52.1487 94.1945C53.1311 93.0055 53.9029 91.8165 53.9029 91.5523C53.9029 91.2881 55.5169 88.5798 57.4115 85.4752C59.3762 82.3706 60.92 79.7945 60.92 79.6624C60.92 79.3982 68.9194 66.5174 71.7964 62.2239C72.849 60.7046 74.4629 58.0624 75.3751 56.345C76.3575 54.6275 78.7433 50.7963 80.6379 47.7578C82.5325 44.7193 84.0763 42.0771 84.0763 41.8128C84.0763 41.6147 84.9183 40.4257 85.9007 39.1706C86.8831 37.9156 87.5146 36.7266 87.3041 36.4624C86.7428 35.9339 73.7612 35.8679 69.4808 36.3303Z" fill="black"/>
<path d="M99.5842 56.0801C98.6018 57.137 96.9879 59.449 96.0055 61.1664C93.6899 65.46 91.5848 69.0269 74.1825 97.2324C72.6387 99.6104 71.4458 101.856 71.4458 102.121C71.4458 102.385 70.7441 103.309 69.9722 104.102C68.0776 106.018 68.639 107.999 70.9546 107.405C71.7967 107.207 81.1995 107.009 91.8655 107.009H111.162L112.706 104.168C114.671 100.601 117.127 96.5719 118.741 94.326C120.916 91.2214 120.285 90.9572 109.969 90.8912C100.777 90.8251 100.567 90.8251 100.356 89.3719C100.216 88.4471 101.549 85.6067 103.794 82.1058C105.829 78.9352 108.075 75.2361 108.777 73.849L110.04 71.3389H143.02C163.72 71.3389 176 71.0746 176 70.6783C176 69.9517 167.86 56.9389 166.316 55.2875C165.334 54.2306 163.018 54.1646 133.336 54.1646L101.409 54.2306L99.5842 56.0801Z" fill="black"/>
</svg>
